<svg xmlns="http://www.w3.org/2000/svg" xmlns:xlink="http://www.w3.org/1999/xlink" width="31.154" height="27" viewBox="0 0 31.154 27"><defs><style>.a{fill:#fff;stroke:#707070;}.b{clip-path:url(#a);}.c{fill:#f4f4f4;}.d{fill:#27d3a5;}</style><clipPath id="a"><rect class="a" width="31.154" height="27" transform="translate(0 0)"/></clipPath></defs><g class="b"><g transform="translate(6.431 0)"><path class="c" d="M8.271,16.881a.435.435,0,0,0,.523-.7,8.274,8.274,0,1,1,9.929,0,.435.435,0,0,0,.523.7,9.145,9.145,0,1,0-10.974,0Z" transform="translate(-4.612 -0.419)"/><circle class="d" cx="4.355" cy="4.355" r="4.355" transform="translate(4.791 4.79)"/><path class="d" d="M20.71,20.8v-1.35a.435.435,0,0,0-.255-.4L15.89,16.98a2.167,2.167,0,0,0-4.3,0L7.03,19.056a.435.435,0,0,0-.255.4V20.8a2.177,2.177,0,1,0,.871,0v-1.07L11.668,17.9a2.177,2.177,0,0,0,1.638,1.505v3.136a2.177,2.177,0,1,0,.871,0V19.408a2.177,2.177,0,0,0,1.638-1.5l4.023,1.828V20.8a2.177,2.177,0,1,0,.871,0Z" transform="translate(-4.596 0.145)"/></g></g></svg>