<svg xmlns="http://www.w3.org/2000/svg" xmlns:xlink="http://www.w3.org/1999/xlink" width="30" height="26" viewBox="0 0 30 26"><defs><style>.a{fill:#f4f4f4;stroke:#f4f4f4;}.b{clip-path:url(#a);}.c{fill:#000000;stroke:#000000}</style><clipPath id="a"><rect class="a" width="30" height="26" transform="translate(0 0)"/></clipPath></defs><g class="b" transform="translate(0 0)"><g transform="translate(6.193 0)"><path class="c" d="M8.136,16.271a.419.419,0,1,0,.5-.671,7.968,7.968,0,1,1,9.561,0,.419.419,0,0,0,.5.671,8.807,8.807,0,1,0-10.568,0Z" transform="translate(-4.612 -0.419)"/><circle class="c" cx="4.194" cy="4.194" r="4.194" transform="translate(4.614 4.613)"/><path class="c" d="M20.129,20.591v-1.3a.419.419,0,0,0-.246-.382l-4.4-2a2.086,2.086,0,0,0-4.137,0l-4.4,2a.419.419,0,0,0-.246.382v1.3a2.1,2.1,0,1,0,.839,0v-1.03L11.423,17.8A2.1,2.1,0,0,0,13,19.249v3.019a2.1,2.1,0,1,0,.839,0V19.249A2.1,2.1,0,0,0,15.417,17.8l3.874,1.76v1.03a2.1,2.1,0,1,0,.839,0Z" transform="translate(-4.612 -0.419)"/></g></g></svg>