<svg xmlns="http://www.w3.org/2000/svg" width="17" height="17.81" viewBox="0 0 17 17.81"><defs><style>.a{fill:#f4f4f4;}</style></defs><g transform="translate(-3 -3)"><path class="a" d="M22.643,16.048H21.429V12.4a.4.4,0,1,0-.81,0v3.643H19.4a.4.4,0,0,0-.4.4v6.476a.4.4,0,0,0,.4.4h1.214v2.429a.4.4,0,1,0,.81,0V23.333h1.214a.4.4,0,0,0,.4-.4V16.452A.4.4,0,0,0,22.643,16.048Z" transform="translate(-9.524 -5.357)"/><path class="a" d="M6.643,4.619H5.429V3.4a.4.4,0,1,0-.81,0V4.619H3.4a.4.4,0,0,0-.4.4v9.714a.4.4,0,0,0,.4.4H4.619v3.238a.4.4,0,1,0,.81,0V15.143H6.643a.4.4,0,0,0,.4-.4V5.024A.4.4,0,0,0,6.643,4.619Z"/><path class="a" d="M38.643,7.452H37.429V3.4a.4.4,0,0,0-.81,0V7.452H35.4a.4.4,0,0,0-.4.4v9.31a.4.4,0,0,0,.4.4h1.214V19.6a.4.4,0,0,0,.81,0V17.571h1.214a.4.4,0,0,0,.4-.4V7.857A.4.4,0,0,0,38.643,7.452Z" transform="translate(-19.048)"/></g></svg>