<svg xmlns="http://www.w3.org/2000/svg" width="30.5" height="26.588" viewBox="0 0 30.5 26.588"><defs><style>.a{fill:#f4f4f4;}.b{fill:#000000;stroke:#f4f4f4;}</style></defs><g transform="translate(0.5)"><path class="a" d="M36.9,21.484l-5.152-1.873a.652.652,0,0,1-.424-.522l-.264-1.85a5.885,5.885,0,0,0,2.992-5.11V8.264a3.5,3.5,0,0,0-3.083-3.473L30.4,3.652a1.2,1.2,0,0,0-1.46-.587L25.427,4.32A4.863,4.863,0,0,0,22.9,6.592a7.418,7.418,0,0,1,2.674,5.717v1.126a10.69,10.69,0,0,0,1.63,4.784,1.957,1.957,0,0,1-.755,2.836,4.766,4.766,0,0,1-.648.252l.9.269a3.891,3.891,0,0,1,2.786,3.749v3.11a1.934,1.934,0,0,1-.12.652h8.6a.652.652,0,0,0,.652-.652v-4.5a2.615,2.615,0,0,0-1.717-2.45Z" transform="translate(-8.617 -2.999)"/><path class="b" d="M19.913,30.826H1.652A.652.652,0,0,1,1,30.174v-3.11a2.594,2.594,0,0,1,1.859-2.5l4.328-1.3a.652.652,0,0,0,.457-.532L7.75,22a7.856,7.856,0,0,1-4.435-.374.652.652,0,0,1-.251-.946,11.833,11.833,0,0,0,1.849-5.508v-1.3a5.87,5.87,0,0,1,6.261-5.857,5.975,5.975,0,0,1,5.478,6.035v1.126A11.833,11.833,0,0,0,18.5,20.681a.652.652,0,0,1-.251.946A7.857,7.857,0,0,1,13.813,22l.106.734a.652.652,0,0,0,.457.532l4.33,1.3a2.594,2.594,0,0,1,1.859,2.5v3.11A.652.652,0,0,1,19.913,30.826Z" transform="translate(-1 -4.739)"/></g></svg>