<?xml version="1.0" standalone="no"?>
<!DOCTYPE svg PUBLIC "-//W3C//DTD SVG 20010904//EN"
 "http://www.w3.org/TR/2001/REC-SVG-20010904/DTD/svg10.dtd">
<svg version="1.0" xmlns="http://www.w3.org/2000/svg"
 width="552.000000pt" height="552.000000pt" viewBox="0 0 552.000000 552.000000"
 preserveAspectRatio="xMidYMid meet">
<metadata>
Created by potrace 1.14, written by Peter Selinger 2001-2017
</metadata>
<g transform="translate(0.000000,552.000000) scale(0.100000,-0.100000)"
fill="#000000" stroke="none">
<path d="M2259 5516 c-3 -3 -56 -10 -159 -21 -14 -1 -38 -5 -55 -9 -16 -3 -41
-8 -55 -11 -146 -27 -400 -106 -482 -151 -16 -8 -28 -12 -28 -7 0 4 -4 4 -8
-2 -4 -5 -56 -35 -117 -65 -122 -61 -290 -171 -405 -264 -83 -67 -290 -272
-290 -288 0 -5 -4 -7 -9 -4 -5 3 -11 0 -14 -7 -2 -6 -41 -60 -85 -119 -43 -59
-101 -144 -128 -190 -26 -46 -52 -84 -56 -86 -4 -2 -8 -10 -8 -17 0 -8 -9 -29
-20 -48 -60 -101 -155 -359 -195 -529 -25 -107 -25 -113 -25 -538 0 -429 5
-509 39 -610 5 -14 14 -45 21 -70 7 -25 16 -54 20 -65 5 -11 14 -38 21 -60 7
-22 17 -44 21 -49 4 -6 8 -16 8 -24 0 -22 128 -281 176 -355 24 -37 44 -70 44
-73 0 -3 13 -22 28 -42 16 -20 55 -73 88 -116 64 -87 259 -289 339 -352 27
-21 59 -47 70 -57 34 -31 235 -162 323 -211 46 -25 127 -64 180 -87 54 -22
106 -45 117 -49 76 -33 322 -100 420 -115 22 -4 51 -8 65 -11 14 -2 48 -6 75
-9 28 -3 68 -7 90 -10 48 -5 326 -5 375 0 19 2 62 6 95 9 33 4 72 9 85 11 14
3 41 8 60 11 19 3 43 7 52 10 10 3 30 7 45 10 16 3 46 10 68 16 22 5 47 11 55
13 90 18 362 131 494 205 49 28 93 50 98 50 4 0 8 4 8 8 0 5 12 15 28 23 15 7
54 33 86 56 l60 43 615 -620 c653 -656 634 -640 724 -640 41 0 112 35 136 67
11 16 26 34 33 42 21 25 19 130 -3 173 -11 21 -155 175 -322 342 -166 168
-434 438 -594 600 -161 162 -293 296 -293 299 0 3 14 20 31 38 18 19 48 54 68
79 20 25 41 50 46 56 6 6 28 37 50 70 22 32 42 61 45 64 21 19 190 319 199
352 1 4 10 27 20 50 10 24 30 79 45 123 16 44 31 87 34 95 7 20 10 31 16 58 3
12 7 26 10 30 3 5 8 24 11 43 9 45 13 64 15 64 1 0 3 12 5 28 2 15 8 51 14 80
10 49 12 71 27 207 6 58 6 330 0 390 -17 167 -50 337 -94 485 -124 422 -384
822 -721 1111 -18 16 -41 36 -50 44 -108 98 -348 243 -536 326 -44 20 -89 39
-100 44 -59 26 -278 92 -348 104 -15 3 -35 7 -45 10 -15 5 -88 17 -182 31 -41
6 -466 15 -471 11z m411 -400 c205 -23 478 -99 630 -178 30 -15 60 -28 67 -28
7 0 13 -3 13 -8 0 -4 14 -13 31 -21 36 -16 239 -148 254 -164 6 -7 28 -25 49
-41 39 -29 250 -236 241 -236 -3 0 11 -17 30 -37 19 -20 35 -40 35 -44 0 -4 7
-14 15 -22 46 -47 185 -290 240 -422 49 -115 106 -319 120 -425 3 -25 8 -52
10 -60 7 -27 16 -173 16 -265 1 -159 -10 -249 -57 -473 -6 -32 -69 -220 -88
-264 -9 -21 -16 -39 -15 -40 7 -15 -201 -365 -244 -410 -6 -7 -30 -36 -52 -63
-60 -76 -196 -208 -283 -275 -42 -33 -88 -69 -102 -80 -14 -11 -30 -20 -37
-20 -6 0 -13 -4 -15 -8 -6 -15 -184 -112 -278 -153 -363 -156 -723 -199 -1125
-134 -191 31 -442 121 -620 223 -350 200 -618 485 -789 837 -70 144 -80 171
-139 363 -16 50 -40 175 -53 272 -22 171 -5 487 37 655 10 44 22 90 24 102 32
139 200 493 284 595 6 7 37 47 69 88 143 183 318 336 547 477 26 16 207 108
215 109 3 0 22 8 44 17 94 41 298 100 387 111 19 3 34 5 34 6 0 2 50 8 114 15
30 3 56 6 57 8 5 5 273 -1 334 -7z"/>
<path d="M2338 4315 c-2 -2 -21 -5 -43 -8 -300 -41 -617 -233 -775 -470 -14
-20 -28 -37 -32 -37 -5 0 -8 -4 -8 -10 0 -5 -13 -31 -29 -57 -66 -108 -133
-300 -148 -428 -9 -73 -8 -251 1 -320 31 -248 149 -480 335 -665 103 -101 136
-130 150 -130 5 0 14 -7 21 -15 7 -8 24 -21 39 -29 14 -7 51 -27 81 -43 65
-35 163 -73 188 -73 10 0 26 6 37 13 16 12 18 30 19 141 l1 126 -30 -6 c-84
-19 -192 -7 -262 29 -36 19 -97 90 -108 127 -17 58 -57 109 -139 173 -20 16
-33 34 -30 42 17 43 144 4 196 -59 9 -12 32 -41 50 -66 19 -24 56 -58 82 -75
43 -26 59 -30 121 -30 90 0 114 15 139 86 10 30 27 64 39 77 11 12 16 22 11
23 -5 0 -16 2 -24 4 -8 2 -31 6 -50 9 -301 54 -453 246 -449 566 1 123 23 191
93 294 23 34 23 39 11 84 -15 59 -11 149 11 214 l16 49 41 -5 c76 -8 119 -24
217 -82 63 -37 63 -37 150 -19 130 27 300 24 452 -7 50 -10 59 -10 76 5 10 9
22 17 26 17 4 0 20 8 34 19 40 28 175 73 208 69 24 -2 32 -10 43 -43 20 -58
19 -241 -2 -261 -3 -4 5 -20 19 -37 37 -44 72 -119 87 -184 26 -117 4 -317
-46 -409 -9 -16 -20 -39 -26 -50 -18 -40 -112 -124 -170 -153 -78 -40 -187
-71 -263 -74 -18 -1 -15 -10 12 -42 40 -46 49 -106 49 -316 0 -271 6 -279 152
-219 73 31 221 111 239 130 3 3 28 23 55 45 66 52 145 135 206 215 56 73 159
274 174 340 1 3 6 23 13 45 31 112 40 193 37 340 -6 312 -126 593 -344 805
-66 64 -147 130 -160 130 -6 0 -11 5 -11 10 0 6 -7 10 -15 10 -8 0 -15 3 -15
8 0 4 -10 12 -23 18 -12 6 -53 27 -92 46 -38 20 -95 43 -125 53 -30 9 -62 19
-70 22 -19 8 -23 9 -100 23 -56 11 -333 23 -342 15z"/>
</g>
</svg>
